# xmcd CD database file generated by Grip 3.2.0
# 
# Track frame offsets:
#       150
#       13113
#       26087
#       41675
#       54654
#       67888
#       75366
#       92301
#       107968
#       122718
#       135794
#       149963
#       166070
#       178194
#       192276
#       206949
#       220132
#       231947
# 
# Disc length: 3238 seconds
# 
# Revision: 1
# Processed by: cddbd v1.5.1PL2 Copyright (c) Steve Scherf et al.
# Submitted via: Grip 3.2.0
# 
DISCID=fe0ca412
DTITLE=Various Artist - The greatest Era in Jazz from Swing to Bebop CD8
DYEAR=1900
DGENRE=Jazz
TTITLE0=Muggsy Spanier - At The Jazz and Ball
TTITLE1=Judy Garland - Embraceable You
TTITLE2=Pee Wee Russel - D. A. Blues - Alternate
TTITLE3=Ray Anthony - All Of Me
TTITLE4=Wild Bill Davison - A Monday Date
TTITLE5=Oscar Peterson - Get happy
TTITLE6=Errol Garner - It Could Happen To You
TTITLE7=Glenn Miller - Chattanooga Choo Choo
TTITLE8=Stan Getz - I've Got You Under My Skin
TTITLE9=Big Joe Turner - Cherry Red
TTITLE10=Lu Watters - Daddy Do - Alternate
TTITLE11=Glenn Miller - In The Mood
TTITLE12=Bud Freeman - I've Found A New Baby
TTITLE13=Thelonius Monk - Epistrophy
TTITLE14=Ella Fitzgerald - And Her Tears Flowed Like Wine
TTITLE15=Duke Ellington - Chelsea Bridge
TTITLE16=Mildred Bailey - Evaline
TTITLE17=Benny Goodman - Small Group Recordings - Bye Bye Pretty Baby
EXTD=
EXTT0=
EXTT1=
EXTT2=
EXTT3=
EXTT4=
EXTT5=
EXTT6=
EXTT7=
EXTT8=
EXTT9=
EXTT10=
EXTT11=
EXTT12=
EXTT13=
EXTT14=
EXTT15=
EXTT16=
EXTT17=
PLAYORDER=
